<svg xmlns="http://www.w3.org/2000/svg" viewBox="0 0 512 512">
  <defs>
    <linearGradient id="bg" x1="0" y1="0" x2="1" y2="1">
      <stop offset="0%" stop-color="#c41e3a"/>
      <stop offset="100%" stop-color="#d4a017"/>
    </linearGradient>
  </defs>
  <rect width="512" height="512" rx="96" fill="url(#bg)"/>
  <!-- Big house shape -->
  <path d="M256 72 L440 230 L440 420 Q440 440 420 440 L92 440 Q72 440 72 420 L72 230 Z" fill="rgba(255,255,255,0.2)"/>
  <!-- Door -->
  <rect x="220" y="320" width="72" height="120" rx="8" fill="rgba(255,255,255,0.15)"/>
  <!-- Window left -->
  <rect x="120" y="250" width="70" height="60" rx="8" fill="rgba(255,255,255,0.25)"/>
  <!-- Window right -->
  <rect x="322" y="250" width="70" height="60" rx="8" fill="rgba(255,255,255,0.25)"/>
  <!-- Checkmark circle -->
  <circle cx="256" cy="220" r="60" fill="white"/>
  <path d="M228 220 L248 240 L288 196" stroke="#c41e3a" stroke-width="14" stroke-linecap="round" stroke-linejoin="round" fill="none"/>
  <!-- Heart on top of roof -->
  <path d="M256 95 C243 78 218 78 210 95 C202 112 210 132 256 158 C302 132 310 112 302 95 C294 78 269 78 256 95Z" fill="#e31c3d" opacity="0.95"/>
</svg>
