<svg xmlns="http://www.w3.org/2000/svg" viewBox="0 0 512 512">
  <defs>
    <linearGradient id="bg" x1="0" y1="0" x2="1" y2="1">
      <stop offset="0%" stop-color="#b8860b"/>
      <stop offset="100%" stop-color="#d4a017"/>
    </linearGradient>
  </defs>
  <rect width="512" height="512" rx="96" fill="url(#bg)"/>
  <!-- House shape -->
  <path d="M256 120 L380 220 L380 380 Q380 392 368 392 L144 392 Q132 392 132 380 L132 220 Z" fill="rgba(255,255,255,0.2)"/>
  <!-- Checkmark circle -->
  <circle cx="256" cy="290" r="70" fill="white"/>
  <path d="M224 290 L248 314 L292 266" stroke="#4caf50" stroke-width="14" stroke-linecap="round" stroke-linejoin="round" fill="none"/>
  <!-- Heart on roof -->
  <path d="M256 160 C246 148 228 148 222 160 C216 172 222 186 256 206 C290 186 296 172 290 160 C284 148 266 148 256 160Z" fill="white" opacity="0.9"/>
</svg>
